<mxfile host="app.diagrams.net" agent="Mozilla/5.0 (Windows NT 10.0; Win64; x64) AppleWebKit/537.36 (KHTML, like Gecko) Chrome/137.0.0.0 Safari/537.36" version="27.1.1">
  <diagram name="Page-1" id="JXa7n1DYDi3AtPrQ6VPf">
    <mxGraphModel dx="2101" dy="660" grid="1" gridSize="10" guides="1" tooltips="1" connect="1" arrows="1" fold="1" page="1" pageScale="1" pageWidth="850" pageHeight="1100" math="0" shadow="0">
      <root>
        <mxCell id="0" />
        <mxCell id="1" parent="0" />
        <mxCell id="IFTl4m9SXshTZA4w95Up-2" value="&lt;b&gt;AWS Account&lt;/b&gt;" style="points=[[0,0],[0.25,0],[0.5,0],[0.75,0],[1,0],[1,0.25],[1,0.5],[1,0.75],[1,1],[0.75,1],[0.5,1],[0.25,1],[0,1],[0,0.75],[0,0.5],[0,0.25]];outlineConnect=0;html=1;whiteSpace=wrap;fontSize=12;fontStyle=0;container=1;pointerEvents=0;collapsible=0;recursiveResize=0;shape=mxgraph.aws4.group;grIcon=mxgraph.aws4.group_account;strokeColor=#b85450;fillColor=#f8cecc;verticalAlign=top;align=left;spacingLeft=30;dashed=0;strokeWidth=2;" vertex="1" parent="1">
          <mxGeometry x="120" y="140" width="420" height="330" as="geometry" />
        </mxCell>
        <mxCell id="IFTl4m9SXshTZA4w95Up-6" style="edgeStyle=orthogonalEdgeStyle;rounded=0;orthogonalLoop=1;jettySize=auto;html=1;" edge="1" parent="IFTl4m9SXshTZA4w95Up-2" source="IFTl4m9SXshTZA4w95Up-4" target="IFTl4m9SXshTZA4w95Up-5">
          <mxGeometry relative="1" as="geometry">
            <Array as="points">
              <mxPoint x="80" y="62" />
            </Array>
          </mxGeometry>
        </mxCell>
        <mxCell id="IFTl4m9SXshTZA4w95Up-4" value="" style="sketch=0;points=[[0,0,0],[0.25,0,0],[0.5,0,0],[0.75,0,0],[1,0,0],[0,1,0],[0.25,1,0],[0.5,1,0],[0.75,1,0],[1,1,0],[0,0.25,0],[0,0.5,0],[0,0.75,0],[1,0.25,0],[1,0.5,0],[1,0.75,0]];outlineConnect=0;fontColor=#232F3E;fillColor=#ED7100;strokeColor=#ffffff;dashed=0;verticalLabelPosition=bottom;verticalAlign=top;align=center;html=1;fontSize=12;fontStyle=0;aspect=fixed;shape=mxgraph.aws4.resourceIcon;resIcon=mxgraph.aws4.ec2;" vertex="1" parent="IFTl4m9SXshTZA4w95Up-2">
          <mxGeometry x="40" y="101" width="78" height="78" as="geometry" />
        </mxCell>
        <mxCell id="IFTl4m9SXshTZA4w95Up-5" value="" style="sketch=0;outlineConnect=0;fontColor=#232F3E;gradientColor=none;fillColor=#E7157B;strokeColor=none;dashed=0;verticalLabelPosition=bottom;verticalAlign=top;align=center;html=1;fontSize=12;fontStyle=0;aspect=fixed;pointerEvents=1;shape=mxgraph.aws4.parameter_store;" vertex="1" parent="IFTl4m9SXshTZA4w95Up-2">
          <mxGeometry x="305" y="23" width="75" height="78" as="geometry" />
        </mxCell>
        <mxCell id="IFTl4m9SXshTZA4w95Up-7" value="&lt;b&gt;Ansible&lt;/b&gt;" style="text;html=1;align=center;verticalAlign=middle;resizable=0;points=[];autosize=1;strokeColor=none;fillColor=none;" vertex="1" parent="IFTl4m9SXshTZA4w95Up-2">
          <mxGeometry x="44" y="188" width="70" height="30" as="geometry" />
        </mxCell>
        <mxCell id="IFTl4m9SXshTZA4w95Up-20" value="&lt;b&gt;Python SDK boto3 and botocore&lt;/b&gt;" style="text;html=1;align=center;verticalAlign=middle;resizable=0;points=[];autosize=1;strokeColor=none;fillColor=none;" vertex="1" parent="IFTl4m9SXshTZA4w95Up-2">
          <mxGeometry x="80" y="30" width="210" height="30" as="geometry" />
        </mxCell>
        <mxCell id="IFTl4m9SXshTZA4w95Up-9" style="edgeStyle=orthogonalEdgeStyle;rounded=0;orthogonalLoop=1;jettySize=auto;html=1;" edge="1" parent="1" source="IFTl4m9SXshTZA4w95Up-8">
          <mxGeometry relative="1" as="geometry">
            <mxPoint x="120" y="180" as="targetPoint" />
            <Array as="points">
              <mxPoint x="120" y="180" />
            </Array>
          </mxGeometry>
        </mxCell>
        <mxCell id="IFTl4m9SXshTZA4w95Up-8" value="" style="outlineConnect=0;dashed=0;verticalLabelPosition=bottom;verticalAlign=top;align=center;html=1;shape=mxgraph.aws3.management_console;fillColor=#F58534;gradientColor=none;" vertex="1" parent="1">
          <mxGeometry x="-220" y="150" width="100" height="90" as="geometry" />
        </mxCell>
        <mxCell id="IFTl4m9SXshTZA4w95Up-11" style="edgeStyle=orthogonalEdgeStyle;rounded=0;orthogonalLoop=1;jettySize=auto;html=1;" edge="1" parent="1" source="IFTl4m9SXshTZA4w95Up-10" target="IFTl4m9SXshTZA4w95Up-2">
          <mxGeometry relative="1" as="geometry">
            <Array as="points" />
          </mxGeometry>
        </mxCell>
        <mxCell id="IFTl4m9SXshTZA4w95Up-10" value="" style="sketch=0;outlineConnect=0;fontColor=#232F3E;gradientColor=none;fillColor=#ED7100;strokeColor=none;dashed=0;verticalLabelPosition=bottom;verticalAlign=top;align=center;html=1;fontSize=12;fontStyle=0;aspect=fixed;pointerEvents=1;shape=mxgraph.aws4.ecs_copilot_cli;" vertex="1" parent="1">
          <mxGeometry x="-208.18" y="270" width="76.36" height="70" as="geometry" />
        </mxCell>
        <mxCell id="IFTl4m9SXshTZA4w95Up-13" style="edgeStyle=orthogonalEdgeStyle;rounded=0;orthogonalLoop=1;jettySize=auto;html=1;" edge="1" parent="1" source="IFTl4m9SXshTZA4w95Up-12" target="IFTl4m9SXshTZA4w95Up-2">
          <mxGeometry relative="1" as="geometry">
            <mxPoint x="110" y="435" as="targetPoint" />
            <Array as="points">
              <mxPoint x="60" y="415" />
              <mxPoint x="60" y="415" />
            </Array>
          </mxGeometry>
        </mxCell>
        <mxCell id="IFTl4m9SXshTZA4w95Up-12" value="" style="aspect=fixed;sketch=0;html=1;dashed=0;whitespace=wrap;verticalLabelPosition=bottom;verticalAlign=top;fillColor=#2875E2;strokeColor=#ffffff;points=[[0.005,0.63,0],[0.1,0.2,0],[0.9,0.2,0],[0.5,0,0],[0.995,0.63,0],[0.72,0.99,0],[0.5,1,0],[0.28,0.99,0]];shape=mxgraph.kubernetes.icon2;prIcon=api" vertex="1" parent="1">
          <mxGeometry x="-204.74" y="380" width="72.92" height="70" as="geometry" />
        </mxCell>
        <mxCell id="IFTl4m9SXshTZA4w95Up-14" value="" style="dashed=0;outlineConnect=0;html=1;align=center;labelPosition=center;verticalLabelPosition=bottom;verticalAlign=top;shape=mxgraph.weblogos.java" vertex="1" parent="1">
          <mxGeometry x="-500" y="290" width="60" height="80" as="geometry" />
        </mxCell>
        <mxCell id="IFTl4m9SXshTZA4w95Up-23" style="edgeStyle=orthogonalEdgeStyle;rounded=0;orthogonalLoop=1;jettySize=auto;html=1;" edge="1" parent="1" source="IFTl4m9SXshTZA4w95Up-15">
          <mxGeometry relative="1" as="geometry">
            <mxPoint x="-210" y="415" as="targetPoint" />
          </mxGeometry>
        </mxCell>
        <mxCell id="IFTl4m9SXshTZA4w95Up-15" value="" style="points=[];aspect=fixed;html=1;align=center;shadow=0;dashed=0;fillColor=#FF6A00;strokeColor=none;shape=mxgraph.alibaba_cloud.nodejs_performance_platform;" vertex="1" parent="1">
          <mxGeometry x="-494.11" y="386.3" width="50.86" height="57.4" as="geometry" />
        </mxCell>
        <mxCell id="IFTl4m9SXshTZA4w95Up-25" style="edgeStyle=orthogonalEdgeStyle;rounded=0;orthogonalLoop=1;jettySize=auto;html=1;" edge="1" parent="1" source="IFTl4m9SXshTZA4w95Up-16">
          <mxGeometry relative="1" as="geometry">
            <mxPoint x="-320" y="410" as="targetPoint" />
          </mxGeometry>
        </mxCell>
        <mxCell id="IFTl4m9SXshTZA4w95Up-16" value="" style="outlineConnect=0;dashed=0;verticalLabelPosition=bottom;verticalAlign=top;align=center;html=1;shape=mxgraph.aws3.android;fillColor=#FFD44F;gradientColor=none;" vertex="1" parent="1">
          <mxGeometry x="-494.11" y="470" width="56.75" height="60" as="geometry" />
        </mxCell>
        <mxCell id="IFTl4m9SXshTZA4w95Up-17" style="edgeStyle=orthogonalEdgeStyle;rounded=0;orthogonalLoop=1;jettySize=auto;html=1;entryX=0.005;entryY=0.63;entryDx=0;entryDy=0;entryPerimeter=0;" edge="1" parent="1">
          <mxGeometry relative="1" as="geometry">
            <mxPoint x="-440" y="320" as="sourcePoint" />
            <mxPoint x="-204.3753999999999" y="414.0999999999999" as="targetPoint" />
            <Array as="points">
              <mxPoint x="-440" y="321" />
              <mxPoint x="-320" y="321" />
              <mxPoint x="-320" y="414" />
            </Array>
          </mxGeometry>
        </mxCell>
      </root>
    </mxGraphModel>
  </diagram>
</mxfile>
